Patient4_TMGait_0pt6_02_right_47_EMG.mot
version=1
nRows=37
nColumns=33
inDegrees=no
endheader
time	1LAddLong	2LGlutMax	3LGlutMed	4LIliopsoas	5LSemiMemb	6LBicFemLong	7LRecFem	8LVastMed	9LVastLat	10LGasMed	11LTibAnt	12lTibPost	13LPeroneusLong	14LSol	15LExtDigLong	16LFlexDigLong	17RAddLong	18RGlutMax	19RGlutMed	20RIliopsoas	21RSemiMemb	22RBicFemLong	23RRecFem	24RVastMed	25RVastLat	26RGasMed	27RTibAnt	28RTibPost	29RPeroneusLong	30RSol	31RExtDigLong	32RFlexDigLong
57.182	-0.017853	-0.62057	-0.02182	-0.048981	-0.002594	0.006104	0.17868	0.015869	-0.064087	-0.05188	-0.22263	0.008698	-0.033569	0.15823	-0.75409	0.031891	-0.072174	-0.94116	-1.2895	-0.026703	-0.18585	-0.10498	0.26977	0.025177	-0.2684	-0.02533	-0.082245	-0.003052	-1.1969	-0.057831	-0.001068	0.001678
57.183	-0.019073	-0.56137	0.000458	-0.088348	0.003357	0.005188	0.10925	0.02533	-0.055237	-0.006561	-0.093689	0.014343	-0.09964	0.005188	-0.82855	0.035706	-0.05661	-1.1182	-0.5307	-0.14282	-0.077972	-0.32989	0.12024	0.12711	-0.20157	0.001373	-0.080261	-0.028992	-0.8699	0.020752	0.00061	0.009766
57.184	-0.02243	-0.49972	0.037537	-0.066833	0.010834	-0.001984	0.003357	0.023651	-0.054016	0.007782	0.003204	0.021057	-0.076752	-0.1297	-0.68405	0.043945	-0.041199	-1.1787	-0.35355	-0.14008	-0.12833	-0.56839	0.17456	0.17044	-0.10452	0.081635	-0.04364	-0.038452	-0.022888	0.053406	0.002747	-0.000916
57.185	-0.016022	-0.45242	0.056152	-0.031281	0.009918	0.015869	-0.079346	0.024109	-0.035858	-0.000458	0.048828	0.023956	-0.050507	-0.037842	-0.20783	0.048523	-0.024414	-1.3402	0.44159	-0.004425	-0.12787	-0.55664	0.28931	0.04364	-0.11475	0.088348	0.012207	-0.050201	0.37491	0.10101	0.000153	-0.007019
57.186	-0.02533	-0.38803	0.068512	-0.014343	0.006714	0.009613	0.15335	0.013123	-0.032654	0.020905	-0.048981	0.026093	-0.085297	-0.080872	0.081635	0.048676	-0.084534	-1.7082	-0.83633	0.22003	0.14313	-0.098114	0.19653	0.062866	-0.03006	0.009918	0.016479	-0.053711	0.91492	0.10696	0.000153	-0.005798
57.187	-0.024719	-0.26886	-0.026855	0.031586	0.005951	0.001221	0.34714	0.005341	-0.015259	0.028076	-0.03479	0.032043	-0.1088	-0.068359	0.32288	0.058441	-0.10986	-1.9749	-2.0493	0.28397	-0.010681	0.23483	0.17822	0.0354	0.015411	-0.007935	0.041962	-0.05661	0.24735	0.12054	0.003815	-0.013885
57.188	-0.01709	-0.16113	-0.084229	0.039368	0.011749	-0.000916	0.36804	0.011292	-0.000305	0.005493	-0.027924	0.027313	-0.10376	-0.022888	0.41122	0.049286	-0.07843	-1.8517	-1.4456	0.11719	-0.21118	0.23926	0.13214	0.079803	-0.026703	-0.025635	0.049896	-0.039825	-0.13763	0.14236	0.002899	-0.009766
57.189	-0.013123	0.042877	-0.043945	-0.009003	0.011444	-0.006409	0.29205	0.005035	0.020294	-0.023346	0.027161	0.0354	-0.092773	-0.006714	0.35416	0.053253	-0.045013	-1.645	-0.34225	-0.056458	-0.22095	0.401	0.22125	0.071869	-0.074768	-0.02533	0.042419	-0.026093	-0.34347	0.015411	0.00061	-0.016022
57.19	-0.017548	0.16098	-0.031891	-0.027161	0.011749	0.004578	0.22827	0.003204	0.021667	-0.010834	0.11612	0.032043	-0.11108	-0.043182	0.035248	0.053558	-0.048523	-1.7419	0.37888	-0.11856	0.032806	0.28488	0.29007	0.09201	-0.10681	-0.00946	0.031891	-0.037384	0.39032	-0.002289	-0.000458	-0.022125
57.191	-0.009918	0.345	-0.028229	0.001526	0.016174	0.005188	0.20081	0.011749	0.017395	0.011902	0.14221	0.022888	-0.10544	-0.016174	-0.056763	0.058441	-0.040588	-1.8443	0.95291	-0.14191	0.40054	-0.31036	0.40115	0.29083	-0.13138	-0.059662	0.093994	0.11429	0.74371	-0.025482	-0.001831	-0.027466
57.192	-0.004578	0.51971	-0.014191	-0.009003	0.013428	0.006866	0.18601	0.025635	0.033722	0.024414	0.06485	0.024872	-0.10788	0.024567	0.000916	0.051575	-0.009766	-1.9235	0.65536	-0.10773	0.19562	-0.47882	0.49423	0.34927	-0.18799	-0.005493	0.13168	-0.005341	0.30273	-0.13626	-0.002289	-0.029144
57.193	0.009155	0.64545	-0.053101	-0.036774	0.01358	-0.00061	0.065765	0.016022	0.041351	0.029907	0.056763	0.011139	-0.11536	0.03418	0.078125	0.04364	0.005951	-2.1286	-0.092926	-0.054321	0.066376	-0.4332	0.62149	0.20721	-0.22736	0.014801	0.1445	-0.10147	-0.20615	-0.25528	-0.001831	-0.029144
57.194	-0.009918	0.80887	-0.04303	-0.043945	0.006714	-0.001068	-0.041199	-0.009308	0.034637	0.034485	0.058136	0.016785	-0.13702	0.066071	0.15335	0.045471	0.002747	-2.2714	-0.28534	-0.016174	0.015564	-0.49698	0.57907	0.21988	-0.21851	-0.037537	0.18738	-0.12421	-1.1211	-0.14755	0.000458	-0.031281
57.195	-0.003967	0.93979	-0.014496	-0.046844	0.001373	-0.016327	-0.097198	0.002136	0.035553	0.046539	0.051727	0.009766	-0.12299	0.08194	0.16617	0.054779	0.004272	-2.4792	-0.2536	0.069733	-0.051117	-0.20096	0.18463	0.26077	-0.15259	0.004425	0.21088	-0.035248	-2.4312	0.06424	0.005035	-0.032043
57.196	-0.00061	1.0648	-0.004272	-0.058746	-0.001373	-0.021057	-0.008392	0.010376	0.055542	0.036621	0.0383	-0.002136	-0.089569	0.071106	0.15045	0.066986	-0.014191	-2.5131	-0.11643	-0.001221	-0.039978	0.20126	-0.39948	0.1236	-0.079498	0.005951	0.13809	0.082855	-0.60776	0.001068	0.001068	-0.027771
57.197	-0.014343	1.1642	-0.057831	-0.028687	0.00351	-0.02655	0.033569	0.004578	0.044556	0.039063	0.004883	-0.005493	-0.085907	0.067596	0.091705	0.048676	-0.020905	-2.4277	-0.080872	-0.024719	-0.030823	0.52124	-0.59296	0.080109	0.031586	0.032196	-0.090027	0.060577	3.0342	0.009155	-0.001678	-0.035248
57.198	-0.017395	1.1858	-0.081635	-0.02121	0.003815	-0.032349	0.15381	-0.006561	0.060272	0.049896	0.012207	-0.01297	-0.092468	0.070343	0.045929	0.046539	-0.004272	-2.3863	-0.70282	-0.007172	-0.086823	0.13321	-0.2829	0.054626	0.080872	0.026398	-0.054474	0.025635	1.3382	0.26245	0.001984	-0.030518
57.199	-0.013275	1.2291	-0.072174	0.019989	0.003967	-0.034485	0.15869	-0.010681	0.055389	0.052948	0.007172	-0.006866	-0.088654	0.1181	0.029449	0.032806	0.031891	-2.4562	-0.79559	-0.057831	-0.1886	-0.39764	0.023499	0.022125	0.06546	0.028076	0.17944	0.087585	-1.344	0.12451	-0.000763	-0.03418
57.2	-0.023346	1.2553	-0.088959	0.032349	0.005951	-0.045929	0.1799	-0.005341	0.066071	0.056915	0.03418	-0.010529	-0.098419	0.11673	0.027466	0.038605	0.036469	-2.3279	-0.14603	-0.10651	-0.35996	-0.62866	0.2121	0.056	0.10468	0.070496	0.31311	-0.001678	-1.0457	0.14999	0.001373	-0.030975
57.201	-0.034637	1.4311	-0.031128	0.069275	0.005341	-0.050201	0.14572	0.009003	0.077057	0.05661	-0.021362	-0.007629	-0.08728	0.13199	0.072174	0.038147	0.022583	-2.1013	-0.006104	-0.013733	-0.34149	-0.31174	0.21316	0.045166	0.093384	0.053558	-0.072021	0.016174	1.389	-0.16953	0.000763	-0.034027
57.202	-0.033112	1.5056	-0.045166	0.047302	0.000305	-0.041962	0.11002	0.019073	0.081177	0.053864	-0.054016	-0.001221	-0.077362	0.1358	0.22964	0.029907	-0.01236	-1.8852	-0.46661	-0.050201	-0.006409	0.14496	0.10925	0.024109	0.38513	0.039368	-0.090485	0.0383	1.0916	-0.41138	-0.005493	-0.032196
57.203	-0.022583	1.4435	-0.045471	-0.037842	-0.005188	-0.028381	0.062256	0.016785	0.07019	0.057068	-0.005951	-0.00351	-0.093994	0.1236	0.29602	0.030823	-0.050964	-1.7773	-0.88364	0.046082	0.38208	0.058136	0.062103	-0.27023	0.44876	0.037842	-0.03952	-0.016174	1.003	-0.3418	-0.011139	-0.024261
57.204	-0.028992	1.329	-0.076904	-0.063019	-0.002899	-0.030823	0.091705	0.019073	0.078125	0.061951	0.015717	0.001068	-0.06485	0.1265	0.17456	0.025482	-0.034485	-1.5494	-0.86472	0.12512	0.38589	-0.12909	-0.020447	-0.22705	0.38055	0.021667	0.011444	-0.030365	1.2196	-0.097504	0.000153	-0.025787
57.205	-0.00824	1.2511	-0.07309	-0.028534	0	-0.045471	0.15595	0.018921	0.079498	0.038757	0.084076	0.010376	-0.038605	0.14816	0.12024	0.020752	-0.002289	-1.1409	-0.80948	0.083771	0.19516	-0.466	-0.029144	-0.27268	0.33569	0.013275	0.28854	-0.02121	1.1201	-0.077057	-0.000153	-0.024109
57.206	0.001526	1.1986	-0.078583	0.014038	0	-0.020447	0.26337	0.040894	0.053558	0.024567	0.1326	0.006104	0.002136	0.18219	-0.060272	0.026398	0.009003	-0.70725	-0.55954	-0.019989	0.005646	-0.63889	0.039825	-0.13062	0.23712	0.008698	0.63171	-0.017242	0.51712	-0.25955	-0.000763	-0.028992
57.207	-0.000458	1.1531	-0.06134	0.018158	-0.008545	-0.027161	0.31006	-0.007477	0.057831	0.029755	0.14694	0.009613	-0.043793	0.16022	-0.074615	0.012665	0.007477	-0.27557	-0.82016	-0.04303	-0.072937	-0.67963	0.089111	0.03952	0.041199	-0.001526	1.0983	-0.005646	-0.79178	-0.17532	-0.005493	-0.027161
57.208	-0.005341	1.0916	-0.065765	0.003815	0.00473	-0.028687	0.38101	0.005646	0.049744	0.06546	0.15808	0.001984	-0.088806	0.12909	-0.11566	0.016174	-0.019836	0.18097	-0.42557	0.013733	-0.084076	-0.84671	-0.099945	0.37628	-0.26901	-0.011292	1.2509	-0.007782	-1.6927	-0.22751	-0.000916	-0.028076
57.209	-0.003204	0.96939	-0.047455	-0.026245	0.009918	-0.019226	0.45487	0.024719	0.034332	0.059662	0.13443	0.00473	-0.093231	0.13947	-0.089417	0.007172	0.01709	0.44067	-0.52094	0.11627	-0.12726	-1.339	-0.068817	0.37842	-0.54977	0.001068	0.53665	-0.006256	-0.99121	-0.22949	-0.000916	-0.016785
57.21	-0.002594	0.91248	-0.074158	0.021362	0.006866	-0.027924	0.42206	0.0177	0.032806	0.07019	-0.22614	-0.007782	-0.055237	0.17838	-0.13733	0.012207	0.066223	0.83283	-0.15823	-0.02121	-0.17227	-1.7453	0.12634	0.20279	-0.56259	0.015564	-0.70862	-0.007172	-0.62286	-0.13168	0.000916	-0.009918
57.211	-0.006866	0.81039	-0.097961	0.040741	0.010223	-0.025787	0.32089	0.006256	0.043335	0.070343	-0.19714	-0.009918	-0.033722	0.17471	-0.20401	0.016479	0.090485	1.0556	0.61676	-0.14236	-0.093994	-1.5741	0.30365	0.066986	-0.31967	0.034943	-1.1026	-0.010834	1.1496	-0.18951	0.00412	-0.006409
57.212	-0.010223	0.61935	-0.10223	0.013885	0.013123	-0.021667	0.29678	0.006866	0.057983	0.055084	-0.10666	-0.01236	-0.086365	0.14496	-0.22919	0.007019	0.11734	1.1169	0.46539	-0.084076	-0.040894	-1.3921	0.24536	-0.1622	-0.2449	0.026245	-1.1261	-0.013885	1.3808	-0.18921	0.000458	-0.011292
57.213	-0.006104	0.45898	-0.11536	-0.028839	0.014496	-0.027618	0.26199	0.006256	0.053864	0.047607	-0.009613	-0.014343	-0.050201	0.11368	0.19928	0.007019	0.15335	1.2497	0.027161	0.051422	-0.18509	-1.2646	0.091705	-0.289	-0.20401	0.027924	-0.75531	-0.013123	0.10696	-0.062103	-0.00061	-0.007019
57.214	-0.014496	0.20294	-0.11383	-0.003052	0.002594	-0.021515	0.26138	0.00946	0.054321	0.013123	0.12558	-0.010529	0.021667	0.15243	0.063324	0.004578	0.15762	1.4532	0.1326	0.01709	-0.13412	-1.2567	0.16312	-0.090485	-0.19211	0.028534	-0.2861	-0.01358	-1.6805	-0.033264	-0.001068	-0.003052
57.215	0.000153	-0.089569	-0.10605	-0.002899	0.002899	-0.011902	0.24933	0.009155	0.05661	0.024719	0.061951	-0.012054	0.005951	0.096436	0.30838	0.015564	0.15533	1.5828	0.63889	-0.22812	-0.20981	-0.99716	0.17303	0.047455	-0.23025	0.004425	-0.43152	-0.011139	-1.3078	-0.13458	0.000305	0.001373
57.216	0.002594	-0.3389	-0.10956	-0.00885	0.000916	-0.048981	0.29495	0.003052	0.071869	0.038452	0.073547	-0.00351	-0.035858	0.081482	0.42923	0.028076	0.046692	1.6661	0.30182	-0.34668	-0.016785	-0.69397	-0.071716	0.034485	-0.054169	-0.029144	-0.43335	-0.016479	-1.5074	0.0914	0	-0.005188
57.217	0.00885	-0.52399	-0.099945	-0.023193	0.005341	-0.029602	0.44357	-0.008698	0.082397	0.06134	0.25238	0.002289	-0.10574	0.12329	0.22293	0.015411	-0.10361	1.7595	0.26016	-0.28046	-0.13367	-0.36072	-0.31876	0.19852	0.17593	-0.033417	-0.17609	-0.016785	0.77728	0.37933	0.002747	-0.014648
57.218	0.004883	-0.64606	-0.081329	0.010071	0.008698	-0.048523	0.46326	-0.006866	0.054169	0.026093	0.16541	0.002899	-0.052643	0.21683	0.21103	0.016174	-0.1413	1.9431	0.40054	-0.012207	-0.20233	0.75287	-0.22919	0.30701	0.34225	-0.023346	-0.078735	-0.019531	1.3429	0.46371	-0.000458	-0.012054
